# SceneEditorFramework rotation gizmo ring
# Torus centred at the origin in the XZ plane, with Y as its axis
o RotationRing
v 2.25 0 0
v 2.220711 0.070711 0
v 2.15 0.1 0
v 2.079289 0.070711 0
v 2.05 0 0
v 2.079289 -0.070711 0
v 2.15 -0.1 0
v 2.220711 -0.070711 0
v 2.230751 0 0.293684
v 2.201712 0.070711 0.289861
v 2.131606 0.1 0.280631
v 2.061501 0.070711 0.271402
v 2.032462 0 0.267579
v 2.061501 -0.070711 0.271402
v 2.131606 -0.1 0.280631
v 2.201712 -0.070711 0.289861
v 2.173333 0 0.582343
v 2.145042 0.070711 0.574762
v 2.076741 0.1 0.556461
v 2.008439 0.070711 0.53816
v 1.980148 0 0.530579
v 2.008439 -0.070711 0.53816
v 2.076741 -0.1 0.556461
v 2.145042 -0.070711 0.574762
v 2.078729 0 0.861038
v 2.051669 0.070711 0.849829
v 1.986341 0.1 0.822769
v 1.921013 0.070711 0.79571
v 1.893953 0 0.784501
v 1.921013 -0.070711 0.79571
v 1.986341 -0.1 0.822769
v 2.051669 -0.070711 0.849829
v 1.948557 0 1.125
v 1.923192 0.070711 1.110355
v 1.861955 0.1 1.075
v 1.800717 0.070711 1.039645
v 1.775352 0 1.025
v 1.800717 -0.070711 1.039645
v 1.861955 -0.1 1.075
v 1.923192 -0.070711 1.110355
v 1.785045 0 1.369713
v 1.761808 0.070711 1.351883
v 1.70571 0.1 1.308837
v 1.649611 0.070711 1.265791
v 1.626374 0 1.247961
v 1.649611 -0.070711 1.265791
v 1.70571 -0.1 1.308837
v 1.761808 -0.070711 1.351883
v 1.59099 0 1.59099
v 1.57028 0.070711 1.57028
v 1.52028 0.1 1.52028
v 1.47028 0.070711 1.47028
v 1.449569 0 1.449569
v 1.47028 -0.070711 1.47028
v 1.52028 -0.1 1.52028
v 1.57028 -0.070711 1.57028
v 1.369713 0 1.785045
v 1.351883 0.070711 1.761808
v 1.308837 0.1 1.70571
v 1.265791 0.070711 1.649611
v 1.247961 0 1.626374
v 1.265791 -0.070711 1.649611
v 1.308837 -0.1 1.70571
v 1.351883 -0.070711 1.761808
v 1.125 0 1.948557
v 1.110355 0.070711 1.923192
v 1.075 0.1 1.861955
v 1.039645 0.070711 1.800717
v 1.025 0 1.775352
v 1.039645 -0.070711 1.800717
v 1.075 -0.1 1.861955
v 1.110355 -0.070711 1.923192
v 0.861038 0 2.078729
v 0.849829 0.070711 2.051669
v 0.822769 0.1 1.986341
v 0.79571 0.070711 1.921013
v 0.784501 0 1.893953
v 0.79571 -0.070711 1.921013
v 0.822769 -0.1 1.986341
v 0.849829 -0.070711 2.051669
v 0.582343 0 2.173333
v 0.574762 0.070711 2.145042
v 0.556461 0.1 2.076741
v 0.53816 0.070711 2.008439
v 0.530579 0 1.980148
v 0.53816 -0.070711 2.008439
v 0.556461 -0.1 2.076741
v 0.574762 -0.070711 2.145042
v 0.293684 0 2.230751
v 0.289861 0.070711 2.201712
v 0.280631 0.1 2.131606
v 0.271402 0.070711 2.061501
v 0.267579 0 2.032462
v 0.271402 -0.070711 2.061501
v 0.280631 -0.1 2.131606
v 0.289861 -0.070711 2.201712
v 0 0 2.25
v 0 0.070711 2.220711
v 0 0.1 2.15
v 0 0.070711 2.079289
v 0 0 2.05
v 0 -0.070711 2.079289
v 0 -0.1 2.15
v 0 -0.070711 2.220711
v -0.293684 0 2.230751
v -0.289861 0.070711 2.201712
v -0.280631 0.1 2.131606
v -0.271402 0.070711 2.061501
v -0.267579 0 2.032462
v -0.271402 -0.070711 2.061501
v -0.280631 -0.1 2.131606
v -0.289861 -0.070711 2.201712
v -0.582343 0 2.173333
v -0.574762 0.070711 2.145042
v -0.556461 0.1 2.076741
v -0.53816 0.070711 2.008439
v -0.530579 0 1.980148
v -0.53816 -0.070711 2.008439
v -0.556461 -0.1 2.076741
v -0.574762 -0.070711 2.145042
v -0.861038 0 2.078729
v -0.849829 0.070711 2.051669
v -0.822769 0.1 1.986341
v -0.79571 0.070711 1.921013
v -0.784501 0 1.893953
v -0.79571 -0.070711 1.921013
v -0.822769 -0.1 1.986341
v -0.849829 -0.070711 2.051669
v -1.125 0 1.948557
v -1.110355 0.070711 1.923192
v -1.075 0.1 1.861955
v -1.039645 0.070711 1.800717
v -1.025 0 1.775352
v -1.039645 -0.070711 1.800717
v -1.075 -0.1 1.861955
v -1.110355 -0.070711 1.923192
v -1.369713 0 1.785045
v -1.351883 0.070711 1.761808
v -1.308837 0.1 1.70571
v -1.265791 0.070711 1.649611
v -1.247961 0 1.626374
v -1.265791 -0.070711 1.649611
v -1.308837 -0.1 1.70571
v -1.351883 -0.070711 1.761808
v -1.59099 0 1.59099
v -1.57028 0.070711 1.57028
v -1.52028 0.1 1.52028
v -1.47028 0.070711 1.47028
v -1.449569 0 1.449569
v -1.47028 -0.070711 1.47028
v -1.52028 -0.1 1.52028
v -1.57028 -0.070711 1.57028
v -1.785045 0 1.369713
v -1.761808 0.070711 1.351883
v -1.70571 0.1 1.308837
v -1.649611 0.070711 1.265791
v -1.626374 0 1.247961
v -1.649611 -0.070711 1.265791
v -1.70571 -0.1 1.308837
v -1.761808 -0.070711 1.351883
v -1.948557 0 1.125
v -1.923192 0.070711 1.110355
v -1.861955 0.1 1.075
v -1.800717 0.070711 1.039645
v -1.775352 0 1.025
v -1.800717 -0.070711 1.039645
v -1.861955 -0.1 1.075
v -1.923192 -0.070711 1.110355
v -2.078729 0 0.861038
v -2.051669 0.070711 0.849829
v -1.986341 0.1 0.822769
v -1.921013 0.070711 0.79571
v -1.893953 0 0.784501
v -1.921013 -0.070711 0.79571
v -1.986341 -0.1 0.822769
v -2.051669 -0.070711 0.849829
v -2.173333 0 0.582343
v -2.145042 0.070711 0.574762
v -2.076741 0.1 0.556461
v -2.008439 0.070711 0.53816
v -1.980148 0 0.530579
v -2.008439 -0.070711 0.53816
v -2.076741 -0.1 0.556461
v -2.145042 -0.070711 0.574762
v -2.230751 0 0.293684
v -2.201712 0.070711 0.289861
v -2.131606 0.1 0.280631
v -2.061501 0.070711 0.271402
v -2.032462 0 0.267579
v -2.061501 -0.070711 0.271402
v -2.131606 -0.1 0.280631
v -2.201712 -0.070711 0.289861
v -2.25 0 0
v -2.220711 0.070711 0
v -2.15 0.1 0
v -2.079289 0.070711 0
v -2.05 0 0
v -2.079289 -0.070711 0
v -2.15 -0.1 0
v -2.220711 -0.070711 0
v -2.230751 0 -0.293684
v -2.201712 0.070711 -0.289861
v -2.131606 0.1 -0.280631
v -2.061501 0.070711 -0.271402
v -2.032462 0 -0.267579
v -2.061501 -0.070711 -0.271402
v -2.131606 -0.1 -0.280631
v -2.201712 -0.070711 -0.289861
v -2.173333 0 -0.582343
v -2.145042 0.070711 -0.574762
v -2.076741 0.1 -0.556461
v -2.008439 0.070711 -0.53816
v -1.980148 0 -0.530579
v -2.008439 -0.070711 -0.53816
v -2.076741 -0.1 -0.556461
v -2.145042 -0.070711 -0.574762
v -2.078729 0 -0.861038
v -2.051669 0.070711 -0.849829
v -1.986341 0.1 -0.822769
v -1.921013 0.070711 -0.79571
v -1.893953 0 -0.784501
v -1.921013 -0.070711 -0.79571
v -1.986341 -0.1 -0.822769
v -2.051669 -0.070711 -0.849829
v -1.948557 0 -1.125
v -1.923192 0.070711 -1.110355
v -1.861955 0.1 -1.075
v -1.800717 0.070711 -1.039645
v -1.775352 0 -1.025
v -1.800717 -0.070711 -1.039645
v -1.861955 -0.1 -1.075
v -1.923192 -0.070711 -1.110355
v -1.785045 0 -1.369713
v -1.761808 0.070711 -1.351883
v -1.70571 0.1 -1.308837
v -1.649611 0.070711 -1.265791
v -1.626374 0 -1.247961
v -1.649611 -0.070711 -1.265791
v -1.70571 -0.1 -1.308837
v -1.761808 -0.070711 -1.351883
v -1.59099 0 -1.59099
v -1.57028 0.070711 -1.57028
v -1.52028 0.1 -1.52028
v -1.47028 0.070711 -1.47028
v -1.449569 0 -1.449569
v -1.47028 -0.070711 -1.47028
v -1.52028 -0.1 -1.52028
v -1.57028 -0.070711 -1.57028
v -1.369713 0 -1.785045
v -1.351883 0.070711 -1.761808
v -1.308837 0.1 -1.70571
v -1.265791 0.070711 -1.649611
v -1.247961 0 -1.626374
v -1.265791 -0.070711 -1.649611
v -1.308837 -0.1 -1.70571
v -1.351883 -0.070711 -1.761808
v -1.125 0 -1.948557
v -1.110355 0.070711 -1.923192
v -1.075 0.1 -1.861955
v -1.039645 0.070711 -1.800717
v -1.025 0 -1.775352
v -1.039645 -0.070711 -1.800717
v -1.075 -0.1 -1.861955
v -1.110355 -0.070711 -1.923192
v -0.861038 0 -2.078729
v -0.849829 0.070711 -2.051669
v -0.822769 0.1 -1.986341
v -0.79571 0.070711 -1.921013
v -0.784501 0 -1.893953
v -0.79571 -0.070711 -1.921013
v -0.822769 -0.1 -1.986341
v -0.849829 -0.070711 -2.051669
v -0.582343 0 -2.173333
v -0.574762 0.070711 -2.145042
v -0.556461 0.1 -2.076741
v -0.53816 0.070711 -2.008439
v -0.530579 0 -1.980148
v -0.53816 -0.070711 -2.008439
v -0.556461 -0.1 -2.076741
v -0.574762 -0.070711 -2.145042
v -0.293684 0 -2.230751
v -0.289861 0.070711 -2.201712
v -0.280631 0.1 -2.131606
v -0.271402 0.070711 -2.061501
v -0.267579 0 -2.032462
v -0.271402 -0.070711 -2.061501
v -0.280631 -0.1 -2.131606
v -0.289861 -0.070711 -2.201712
v 0 0 -2.25
v 0 0.070711 -2.220711
v 0 0.1 -2.15
v 0 0.070711 -2.079289
v 0 0 -2.05
v 0 -0.070711 -2.079289
v 0 -0.1 -2.15
v 0 -0.070711 -2.220711
v 0.293684 0 -2.230751
v 0.289861 0.070711 -2.201712
v 0.280631 0.1 -2.131606
v 0.271402 0.070711 -2.061501
v 0.267579 0 -2.032462
v 0.271402 -0.070711 -2.061501
v 0.280631 -0.1 -2.131606
v 0.289861 -0.070711 -2.201712
v 0.582343 0 -2.173333
v 0.574762 0.070711 -2.145042
v 0.556461 0.1 -2.076741
v 0.53816 0.070711 -2.008439
v 0.530579 0 -1.980148
v 0.53816 -0.070711 -2.008439
v 0.556461 -0.1 -2.076741
v 0.574762 -0.070711 -2.145042
v 0.861038 0 -2.078729
v 0.849829 0.070711 -2.051669
v 0.822769 0.1 -1.986341
v 0.79571 0.070711 -1.921013
v 0.784501 0 -1.893953
v 0.79571 -0.070711 -1.921013
v 0.822769 -0.1 -1.986341
v 0.849829 -0.070711 -2.051669
v 1.125 0 -1.948557
v 1.110355 0.070711 -1.923192
v 1.075 0.1 -1.861955
v 1.039645 0.070711 -1.800717
v 1.025 0 -1.775352
v 1.039645 -0.070711 -1.800717
v 1.075 -0.1 -1.861955
v 1.110355 -0.070711 -1.923192
v 1.369713 0 -1.785045
v 1.351883 0.070711 -1.761808
v 1.308837 0.1 -1.70571
v 1.265791 0.070711 -1.649611
v 1.247961 0 -1.626374
v 1.265791 -0.070711 -1.649611
v 1.308837 -0.1 -1.70571
v 1.351883 -0.070711 -1.761808
v 1.59099 0 -1.59099
v 1.57028 0.070711 -1.57028
v 1.52028 0.1 -1.52028
v 1.47028 0.070711 -1.47028
v 1.449569 0 -1.449569
v 1.47028 -0.070711 -1.47028
v 1.52028 -0.1 -1.52028
v 1.57028 -0.070711 -1.57028
v 1.785045 0 -1.369713
v 1.761808 0.070711 -1.351883
v 1.70571 0.1 -1.308837
v 1.649611 0.070711 -1.265791
v 1.626374 0 -1.247961
v 1.649611 -0.070711 -1.265791
v 1.70571 -0.1 -1.308837
v 1.761808 -0.070711 -1.351883
v 1.948557 0 -1.125
v 1.923192 0.070711 -1.110355
v 1.861955 0.1 -1.075
v 1.800717 0.070711 -1.039645
v 1.775352 0 -1.025
v 1.800717 -0.070711 -1.039645
v 1.861955 -0.1 -1.075
v 1.923192 -0.070711 -1.110355
v 2.078729 0 -0.861038
v 2.051669 0.070711 -0.849829
v 1.986341 0.1 -0.822769
v 1.921013 0.070711 -0.79571
v 1.893953 0 -0.784501
v 1.921013 -0.070711 -0.79571
v 1.986341 -0.1 -0.822769
v 2.051669 -0.070711 -0.849829
v 2.173333 0 -0.582343
v 2.145042 0.070711 -0.574762
v 2.076741 0.1 -0.556461
v 2.008439 0.070711 -0.53816
v 1.980148 0 -0.530579
v 2.008439 -0.070711 -0.53816
v 2.076741 -0.1 -0.556461
v 2.145042 -0.070711 -0.574762
v 2.230751 0 -0.293684
v 2.201712 0.070711 -0.289861
v 2.131606 0.1 -0.280631
v 2.061501 0.070711 -0.271402
v 2.032462 0 -0.267579
v 2.061501 -0.070711 -0.271402
v 2.131606 -0.1 -0.280631
v 2.201712 -0.070711 -0.289861
vn 1 0 0
vn 0.707107 0.707107 0
vn 0 1 0
vn -0.707107 0.707107 0
vn -1 0 0
vn -0.707107 -0.707107 0
vn 0 -1 0
vn 0.707107 -0.707107 0
vn 0.991445 0 0.130526
vn 0.701057 0.707107 0.092296
vn 0 1 0
vn -0.701057 0.707107 -0.092296
vn -0.991445 0 -0.130526
vn -0.701057 -0.707107 -0.092296
vn 0 -1 0
vn 0.701057 -0.707107 0.092296
vn 0.965926 0 0.258819
vn 0.683013 0.707107 0.183013
vn 0 1 0
vn -0.683013 0.707107 -0.183013
vn -0.965926 0 -0.258819
vn -0.683013 -0.707107 -0.183013
vn 0 -1 0
vn 0.683013 -0.707107 0.183013
vn 0.92388 0 0.382683
vn 0.653281 0.707107 0.270598
vn 0 1 0
vn -0.653281 0.707107 -0.270598
vn -0.92388 0 -0.382683
vn -0.653281 -0.707107 -0.270598
vn 0 -1 0
vn 0.653281 -0.707107 0.270598
vn 0.866025 0 0.5
vn 0.612372 0.707107 0.353553
vn 0 1 0
vn -0.612372 0.707107 -0.353553
vn -0.866025 0 -0.5
vn -0.612372 -0.707107 -0.353553
vn 0 -1 0
vn 0.612372 -0.707107 0.353553
vn 0.793353 0 0.608761
vn 0.560986 0.707107 0.430459
vn 0 1 0
vn -0.560986 0.707107 -0.430459
vn -0.793353 0 -0.608761
vn -0.560986 -0.707107 -0.430459
vn 0 -1 0
vn 0.560986 -0.707107 0.430459
vn 0.707107 0 0.707107
vn 0.5 0.707107 0.5
vn 0 1 0
vn -0.5 0.707107 -0.5
vn -0.707107 0 -0.707107
vn -0.5 -0.707107 -0.5
vn 0 -1 0
vn 0.5 -0.707107 0.5
vn 0.608761 0 0.793353
vn 0.430459 0.707107 0.560986
vn 0 1 0
vn -0.430459 0.707107 -0.560986
vn -0.608761 0 -0.793353
vn -0.430459 -0.707107 -0.560986
vn 0 -1 0
vn 0.430459 -0.707107 0.560986
vn 0.5 0 0.866025
vn 0.353553 0.707107 0.612372
vn 0 1 0
vn -0.353553 0.707107 -0.612372
vn -0.5 0 -0.866025
vn -0.353553 -0.707107 -0.612372
vn 0 -1 0
vn 0.353553 -0.707107 0.612372
vn 0.382683 0 0.92388
vn 0.270598 0.707107 0.653281
vn 0 1 0
vn -0.270598 0.707107 -0.653281
vn -0.382683 0 -0.92388
vn -0.270598 -0.707107 -0.653281
vn 0 -1 0
vn 0.270598 -0.707107 0.653281
vn 0.258819 0 0.965926
vn 0.183013 0.707107 0.683013
vn 0 1 0
vn -0.183013 0.707107 -0.683013
vn -0.258819 0 -0.965926
vn -0.183013 -0.707107 -0.683013
vn 0 -1 0
vn 0.183013 -0.707107 0.683013
vn 0.130526 0 0.991445
vn 0.092296 0.707107 0.701057
vn 0 1 0
vn -0.092296 0.707107 -0.701057
vn -0.130526 0 -0.991445
vn -0.092296 -0.707107 -0.701057
vn 0 -1 0
vn 0.092296 -0.707107 0.701057
vn 0 0 1
vn 0 0.707107 0.707107
vn 0 1 0
vn 0 0.707107 -0.707107
vn 0 0 -1
vn 0 -0.707107 -0.707107
vn 0 -1 0
vn 0 -0.707107 0.707107
vn -0.130526 0 0.991445
vn -0.092296 0.707107 0.701057
vn 0 1 0
vn 0.092296 0.707107 -0.701057
vn 0.130526 0 -0.991445
vn 0.092296 -0.707107 -0.701057
vn 0 -1 0
vn -0.092296 -0.707107 0.701057
vn -0.258819 0 0.965926
vn -0.183013 0.707107 0.683013
vn 0 1 0
vn 0.183013 0.707107 -0.683013
vn 0.258819 0 -0.965926
vn 0.183013 -0.707107 -0.683013
vn 0 -1 0
vn -0.183013 -0.707107 0.683013
vn -0.382683 0 0.92388
vn -0.270598 0.707107 0.653281
vn 0 1 0
vn 0.270598 0.707107 -0.653281
vn 0.382683 0 -0.92388
vn 0.270598 -0.707107 -0.653281
vn 0 -1 0
vn -0.270598 -0.707107 0.653281
vn -0.5 0 0.866025
vn -0.353553 0.707107 0.612372
vn 0 1 0
vn 0.353553 0.707107 -0.612372
vn 0.5 0 -0.866025
vn 0.353553 -0.707107 -0.612372
vn 0 -1 0
vn -0.353553 -0.707107 0.612372
vn -0.608761 0 0.793353
vn -0.430459 0.707107 0.560986
vn 0 1 0
vn 0.430459 0.707107 -0.560986
vn 0.608761 0 -0.793353
vn 0.430459 -0.707107 -0.560986
vn 0 -1 0
vn -0.430459 -0.707107 0.560986
vn -0.707107 0 0.707107
vn -0.5 0.707107 0.5
vn 0 1 0
vn 0.5 0.707107 -0.5
vn 0.707107 0 -0.707107
vn 0.5 -0.707107 -0.5
vn 0 -1 0
vn -0.5 -0.707107 0.5
vn -0.793353 0 0.608761
vn -0.560986 0.707107 0.430459
vn 0 1 0
vn 0.560986 0.707107 -0.430459
vn 0.793353 0 -0.608761
vn 0.560986 -0.707107 -0.430459
vn 0 -1 0
vn -0.560986 -0.707107 0.430459
vn -0.866025 0 0.5
vn -0.612372 0.707107 0.353553
vn 0 1 0
vn 0.612372 0.707107 -0.353553
vn 0.866025 0 -0.5
vn 0.612372 -0.707107 -0.353553
vn 0 -1 0
vn -0.612372 -0.707107 0.353553
vn -0.92388 0 0.382683
vn -0.653281 0.707107 0.270598
vn 0 1 0
vn 0.653281 0.707107 -0.270598
vn 0.92388 0 -0.382683
vn 0.653281 -0.707107 -0.270598
vn 0 -1 0
vn -0.653281 -0.707107 0.270598
vn -0.965926 0 0.258819
vn -0.683013 0.707107 0.183013
vn 0 1 0
vn 0.683013 0.707107 -0.183013
vn 0.965926 0 -0.258819
vn 0.683013 -0.707107 -0.183013
vn 0 -1 0
vn -0.683013 -0.707107 0.183013
vn -0.991445 0 0.130526
vn -0.701057 0.707107 0.092296
vn 0 1 0
vn 0.701057 0.707107 -0.092296
vn 0.991445 0 -0.130526
vn 0.701057 -0.707107 -0.092296
vn 0 -1 0
vn -0.701057 -0.707107 0.092296
vn -1 0 0
vn -0.707107 0.707107 0
vn 0 1 0
vn 0.707107 0.707107 0
vn 1 0 0
vn 0.707107 -0.707107 0
vn 0 -1 0
vn -0.707107 -0.707107 0
vn -0.991445 0 -0.130526
vn -0.701057 0.707107 -0.092296
vn 0 1 0
vn 0.701057 0.707107 0.092296
vn 0.991445 0 0.130526
vn 0.701057 -0.707107 0.092296
vn 0 -1 0
vn -0.701057 -0.707107 -0.092296
vn -0.965926 0 -0.258819
vn -0.683013 0.707107 -0.183013
vn 0 1 0
vn 0.683013 0.707107 0.183013
vn 0.965926 0 0.258819
vn 0.683013 -0.707107 0.183013
vn 0 -1 0
vn -0.683013 -0.707107 -0.183013
vn -0.92388 0 -0.382683
vn -0.653281 0.707107 -0.270598
vn 0 1 0
vn 0.653281 0.707107 0.270598
vn 0.92388 0 0.382683
vn 0.653281 -0.707107 0.270598
vn 0 -1 0
vn -0.653281 -0.707107 -0.270598
vn -0.866025 0 -0.5
vn -0.612372 0.707107 -0.353553
vn 0 1 0
vn 0.612372 0.707107 0.353553
vn 0.866025 0 0.5
vn 0.612372 -0.707107 0.353553
vn 0 -1 0
vn -0.612372 -0.707107 -0.353553
vn -0.793353 0 -0.608761
vn -0.560986 0.707107 -0.430459
vn 0 1 0
vn 0.560986 0.707107 0.430459
vn 0.793353 0 0.608761
vn 0.560986 -0.707107 0.430459
vn 0 -1 0
vn -0.560986 -0.707107 -0.430459
vn -0.707107 0 -0.707107
vn -0.5 0.707107 -0.5
vn 0 1 0
vn 0.5 0.707107 0.5
vn 0.707107 0 0.707107
vn 0.5 -0.707107 0.5
vn 0 -1 0
vn -0.5 -0.707107 -0.5
vn -0.608761 0 -0.793353
vn -0.430459 0.707107 -0.560986
vn 0 1 0
vn 0.430459 0.707107 0.560986
vn 0.608761 0 0.793353
vn 0.430459 -0.707107 0.560986
vn 0 -1 0
vn -0.430459 -0.707107 -0.560986
vn -0.5 0 -0.866025
vn -0.353553 0.707107 -0.612372
vn 0 1 0
vn 0.353553 0.707107 0.612372
vn 0.5 0 0.866025
vn 0.353553 -0.707107 0.612372
vn 0 -1 0
vn -0.353553 -0.707107 -0.612372
vn -0.382683 0 -0.92388
vn -0.270598 0.707107 -0.653281
vn 0 1 0
vn 0.270598 0.707107 0.653281
vn 0.382683 0 0.92388
vn 0.270598 -0.707107 0.653281
vn 0 -1 0
vn -0.270598 -0.707107 -0.653281
vn -0.258819 0 -0.965926
vn -0.183013 0.707107 -0.683013
vn 0 1 0
vn 0.183013 0.707107 0.683013
vn 0.258819 0 0.965926
vn 0.183013 -0.707107 0.683013
vn 0 -1 0
vn -0.183013 -0.707107 -0.683013
vn -0.130526 0 -0.991445
vn -0.092296 0.707107 -0.701057
vn 0 1 0
vn 0.092296 0.707107 0.701057
vn 0.130526 0 0.991445
vn 0.092296 -0.707107 0.701057
vn 0 -1 0
vn -0.092296 -0.707107 -0.701057
vn 0 0 -1
vn 0 0.707107 -0.707107
vn 0 1 0
vn 0 0.707107 0.707107
vn 0 0 1
vn 0 -0.707107 0.707107
vn 0 -1 0
vn 0 -0.707107 -0.707107
vn 0.130526 0 -0.991445
vn 0.092296 0.707107 -0.701057
vn 0 1 0
vn -0.092296 0.707107 0.701057
vn -0.130526 0 0.991445
vn -0.092296 -0.707107 0.701057
vn 0 -1 0
vn 0.092296 -0.707107 -0.701057
vn 0.258819 0 -0.965926
vn 0.183013 0.707107 -0.683013
vn 0 1 0
vn -0.183013 0.707107 0.683013
vn -0.258819 0 0.965926
vn -0.183013 -0.707107 0.683013
vn 0 -1 0
vn 0.183013 -0.707107 -0.683013
vn 0.382683 0 -0.92388
vn 0.270598 0.707107 -0.653281
vn 0 1 0
vn -0.270598 0.707107 0.653281
vn -0.382683 0 0.92388
vn -0.270598 -0.707107 0.653281
vn 0 -1 0
vn 0.270598 -0.707107 -0.653281
vn 0.5 0 -0.866025
vn 0.353553 0.707107 -0.612372
vn 0 1 0
vn -0.353553 0.707107 0.612372
vn -0.5 0 0.866025
vn -0.353553 -0.707107 0.612372
vn 0 -1 0
vn 0.353553 -0.707107 -0.612372
vn 0.608761 0 -0.793353
vn 0.430459 0.707107 -0.560986
vn 0 1 0
vn -0.430459 0.707107 0.560986
vn -0.608761 0 0.793353
vn -0.430459 -0.707107 0.560986
vn 0 -1 0
vn 0.430459 -0.707107 -0.560986
vn 0.707107 0 -0.707107
vn 0.5 0.707107 -0.5
vn 0 1 0
vn -0.5 0.707107 0.5
vn -0.707107 0 0.707107
vn -0.5 -0.707107 0.5
vn 0 -1 0
vn 0.5 -0.707107 -0.5
vn 0.793353 0 -0.608761
vn 0.560986 0.707107 -0.430459
vn 0 1 0
vn -0.560986 0.707107 0.430459
vn -0.793353 0 0.608761
vn -0.560986 -0.707107 0.430459
vn 0 -1 0
vn 0.560986 -0.707107 -0.430459
vn 0.866025 0 -0.5
vn 0.612372 0.707107 -0.353553
vn 0 1 0
vn -0.612372 0.707107 0.353553
vn -0.866025 0 0.5
vn -0.612372 -0.707107 0.353553
vn 0 -1 0
vn 0.612372 -0.707107 -0.353553
vn 0.92388 0 -0.382683
vn 0.653281 0.707107 -0.270598
vn 0 1 0
vn -0.653281 0.707107 0.270598
vn -0.92388 0 0.382683
vn -0.653281 -0.707107 0.270598
vn 0 -1 0
vn 0.653281 -0.707107 -0.270598
vn 0.965926 0 -0.258819
vn 0.683013 0.707107 -0.183013
vn 0 1 0
vn -0.683013 0.707107 0.183013
vn -0.965926 0 0.258819
vn -0.683013 -0.707107 0.183013
vn 0 -1 0
vn 0.683013 -0.707107 -0.183013
vn 0.991445 0 -0.130526
vn 0.701057 0.707107 -0.092296
vn 0 1 0
vn -0.701057 0.707107 0.092296
vn -0.991445 0 0.130526
vn -0.701057 -0.707107 0.092296
vn 0 -1 0
vn 0.701057 -0.707107 -0.092296
f 1//1 2//2 10//10
f 1//1 10//10 9//9
f 2//2 3//3 11//11
f 2//2 11//11 10//10
f 3//3 4//4 12//12
f 3//3 12//12 11//11
f 4//4 5//5 13//13
f 4//4 13//13 12//12
f 5//5 6//6 14//14
f 5//5 14//14 13//13
f 6//6 7//7 15//15
f 6//6 15//15 14//14
f 7//7 8//8 16//16
f 7//7 16//16 15//15
f 8//8 1//1 9//9
f 8//8 9//9 16//16
f 9//9 10//10 18//18
f 9//9 18//18 17//17
f 10//10 11//11 19//19
f 10//10 19//19 18//18
f 11//11 12//12 20//20
f 11//11 20//20 19//19
f 12//12 13//13 21//21
f 12//12 21//21 20//20
f 13//13 14//14 22//22
f 13//13 22//22 21//21
f 14//14 15//15 23//23
f 14//14 23//23 22//22
f 15//15 16//16 24//24
f 15//15 24//24 23//23
f 16//16 9//9 17//17
f 16//16 17//17 24//24
f 17//17 18//18 26//26
f 17//17 26//26 25//25
f 18//18 19//19 27//27
f 18//18 27//27 26//26
f 19//19 20//20 28//28
f 19//19 28//28 27//27
f 20//20 21//21 29//29
f 20//20 29//29 28//28
f 21//21 22//22 30//30
f 21//21 30//30 29//29
f 22//22 23//23 31//31
f 22//22 31//31 30//30
f 23//23 24//24 32//32
f 23//23 32//32 31//31
f 24//24 17//17 25//25
f 24//24 25//25 32//32
f 25//25 26//26 34//34
f 25//25 34//34 33//33
f 26//26 27//27 35//35
f 26//26 35//35 34//34
f 27//27 28//28 36//36
f 27//27 36//36 35//35
f 28//28 29//29 37//37
f 28//28 37//37 36//36
f 29//29 30//30 38//38
f 29//29 38//38 37//37
f 30//30 31//31 39//39
f 30//30 39//39 38//38
f 31//31 32//32 40//40
f 31//31 40//40 39//39
f 32//32 25//25 33//33
f 32//32 33//33 40//40
f 33//33 34//34 42//42
f 33//33 42//42 41//41
f 34//34 35//35 43//43
f 34//34 43//43 42//42
f 35//35 36//36 44//44
f 35//35 44//44 43//43
f 36//36 37//37 45//45
f 36//36 45//45 44//44
f 37//37 38//38 46//46
f 37//37 46//46 45//45
f 38//38 39//39 47//47
f 38//38 47//47 46//46
f 39//39 40//40 48//48
f 39//39 48//48 47//47
f 40//40 33//33 41//41
f 40//40 41//41 48//48
f 41//41 42//42 50//50
f 41//41 50//50 49//49
f 42//42 43//43 51//51
f 42//42 51//51 50//50
f 43//43 44//44 52//52
f 43//43 52//52 51//51
f 44//44 45//45 53//53
f 44//44 53//53 52//52
f 45//45 46//46 54//54
f 45//45 54//54 53//53
f 46//46 47//47 55//55
f 46//46 55//55 54//54
f 47//47 48//48 56//56
f 47//47 56//56 55//55
f 48//48 41//41 49//49
f 48//48 49//49 56//56
f 49//49 50//50 58//58
f 49//49 58//58 57//57
f 50//50 51//51 59//59
f 50//50 59//59 58//58
f 51//51 52//52 60//60
f 51//51 60//60 59//59
f 52//52 53//53 61//61
f 52//52 61//61 60//60
f 53//53 54//54 62//62
f 53//53 62//62 61//61
f 54//54 55//55 63//63
f 54//54 63//63 62//62
f 55//55 56//56 64//64
f 55//55 64//64 63//63
f 56//56 49//49 57//57
f 56//56 57//57 64//64
f 57//57 58//58 66//66
f 57//57 66//66 65//65
f 58//58 59//59 67//67
f 58//58 67//67 66//66
f 59//59 60//60 68//68
f 59//59 68//68 67//67
f 60//60 61//61 69//69
f 60//60 69//69 68//68
f 61//61 62//62 70//70
f 61//61 70//70 69//69
f 62//62 63//63 71//71
f 62//62 71//71 70//70
f 63//63 64//64 72//72
f 63//63 72//72 71//71
f 64//64 57//57 65//65
f 64//64 65//65 72//72
f 65//65 66//66 74//74
f 65//65 74//74 73//73
f 66//66 67//67 75//75
f 66//66 75//75 74//74
f 67//67 68//68 76//76
f 67//67 76//76 75//75
f 68//68 69//69 77//77
f 68//68 77//77 76//76
f 69//69 70//70 78//78
f 69//69 78//78 77//77
f 70//70 71//71 79//79
f 70//70 79//79 78//78
f 71//71 72//72 80//80
f 71//71 80//80 79//79
f 72//72 65//65 73//73
f 72//72 73//73 80//80
f 73//73 74//74 82//82
f 73//73 82//82 81//81
f 74//74 75//75 83//83
f 74//74 83//83 82//82
f 75//75 76//76 84//84
f 75//75 84//84 83//83
f 76//76 77//77 85//85
f 76//76 85//85 84//84
f 77//77 78//78 86//86
f 77//77 86//86 85//85
f 78//78 79//79 87//87
f 78//78 87//87 86//86
f 79//79 80//80 88//88
f 79//79 88//88 87//87
f 80//80 73//73 81//81
f 80//80 81//81 88//88
f 81//81 82//82 90//90
f 81//81 90//90 89//89
f 82//82 83//83 91//91
f 82//82 91//91 90//90
f 83//83 84//84 92//92
f 83//83 92//92 91//91
f 84//84 85//85 93//93
f 84//84 93//93 92//92
f 85//85 86//86 94//94
f 85//85 94//94 93//93
f 86//86 87//87 95//95
f 86//86 95//95 94//94
f 87//87 88//88 96//96
f 87//87 96//96 95//95
f 88//88 81//81 89//89
f 88//88 89//89 96//96
f 89//89 90//90 98//98
f 89//89 98//98 97//97
f 90//90 91//91 99//99
f 90//90 99//99 98//98
f 91//91 92//92 100//100
f 91//91 100//100 99//99
f 92//92 93//93 101//101
f 92//92 101//101 100//100
f 93//93 94//94 102//102
f 93//93 102//102 101//101
f 94//94 95//95 103//103
f 94//94 103//103 102//102
f 95//95 96//96 104//104
f 95//95 104//104 103//103
f 96//96 89//89 97//97
f 96//96 97//97 104//104
f 97//97 98//98 106//106
f 97//97 106//106 105//105
f 98//98 99//99 107//107
f 98//98 107//107 106//106
f 99//99 100//100 108//108
f 99//99 108//108 107//107
f 100//100 101//101 109//109
f 100//100 109//109 108//108
f 101//101 102//102 110//110
f 101//101 110//110 109//109
f 102//102 103//103 111//111
f 102//102 111//111 110//110
f 103//103 104//104 112//112
f 103//103 112//112 111//111
f 104//104 97//97 105//105
f 104//104 105//105 112//112
f 105//105 106//106 114//114
f 105//105 114//114 113//113
f 106//106 107//107 115//115
f 106//106 115//115 114//114
f 107//107 108//108 116//116
f 107//107 116//116 115//115
f 108//108 109//109 117//117
f 108//108 117//117 116//116
f 109//109 110//110 118//118
f 109//109 118//118 117//117
f 110//110 111//111 119//119
f 110//110 119//119 118//118
f 111//111 112//112 120//120
f 111//111 120//120 119//119
f 112//112 105//105 113//113
f 112//112 113//113 120//120
f 113//113 114//114 122//122
f 113//113 122//122 121//121
f 114//114 115//115 123//123
f 114//114 123//123 122//122
f 115//115 116//116 124//124
f 115//115 124//124 123//123
f 116//116 117//117 125//125
f 116//116 125//125 124//124
f 117//117 118//118 126//126
f 117//117 126//126 125//125
f 118//118 119//119 127//127
f 118//118 127//127 126//126
f 119//119 120//120 128//128
f 119//119 128//128 127//127
f 120//120 113//113 121//121
f 120//120 121//121 128//128
f 121//121 122//122 130//130
f 121//121 130//130 129//129
f 122//122 123//123 131//131
f 122//122 131//131 130//130
f 123//123 124//124 132//132
f 123//123 132//132 131//131
f 124//124 125//125 133//133
f 124//124 133//133 132//132
f 125//125 126//126 134//134
f 125//125 134//134 133//133
f 126//126 127//127 135//135
f 126//126 135//135 134//134
f 127//127 128//128 136//136
f 127//127 136//136 135//135
f 128//128 121//121 129//129
f 128//128 129//129 136//136
f 129//129 130//130 138//138
f 129//129 138//138 137//137
f 130//130 131//131 139//139
f 130//130 139//139 138//138
f 131//131 132//132 140//140
f 131//131 140//140 139//139
f 132//132 133//133 141//141
f 132//132 141//141 140//140
f 133//133 134//134 142//142
f 133//133 142//142 141//141
f 134//134 135//135 143//143
f 134//134 143//143 142//142
f 135//135 136//136 144//144
f 135//135 144//144 143//143
f 136//136 129//129 137//137
f 136//136 137//137 144//144
f 137//137 138//138 146//146
f 137//137 146//146 145//145
f 138//138 139//139 147//147
f 138//138 147//147 146//146
f 139//139 140//140 148//148
f 139//139 148//148 147//147
f 140//140 141//141 149//149
f 140//140 149//149 148//148
f 141//141 142//142 150//150
f 141//141 150//150 149//149
f 142//142 143//143 151//151
f 142//142 151//151 150//150
f 143//143 144//144 152//152
f 143//143 152//152 151//151
f 144//144 137//137 145//145
f 144//144 145//145 152//152
f 145//145 146//146 154//154
f 145//145 154//154 153//153
f 146//146 147//147 155//155
f 146//146 155//155 154//154
f 147//147 148//148 156//156
f 147//147 156//156 155//155
f 148//148 149//149 157//157
f 148//148 157//157 156//156
f 149//149 150//150 158//158
f 149//149 158//158 157//157
f 150//150 151//151 159//159
f 150//150 159//159 158//158
f 151//151 152//152 160//160
f 151//151 160//160 159//159
f 152//152 145//145 153//153
f 152//152 153//153 160//160
f 153//153 154//154 162//162
f 153//153 162//162 161//161
f 154//154 155//155 163//163
f 154//154 163//163 162//162
f 155//155 156//156 164//164
f 155//155 164//164 163//163
f 156//156 157//157 165//165
f 156//156 165//165 164//164
f 157//157 158//158 166//166
f 157//157 166//166 165//165
f 158//158 159//159 167//167
f 158//158 167//167 166//166
f 159//159 160//160 168//168
f 159//159 168//168 167//167
f 160//160 153//153 161//161
f 160//160 161//161 168//168
f 161//161 162//162 170//170
f 161//161 170//170 169//169
f 162//162 163//163 171//171
f 162//162 171//171 170//170
f 163//163 164//164 172//172
f 163//163 172//172 171//171
f 164//164 165//165 173//173
f 164//164 173//173 172//172
f 165//165 166//166 174//174
f 165//165 174//174 173//173
f 166//166 167//167 175//175
f 166//166 175//175 174//174
f 167//167 168//168 176//176
f 167//167 176//176 175//175
f 168//168 161//161 169//169
f 168//168 169//169 176//176
f 169//169 170//170 178//178
f 169//169 178//178 177//177
f 170//170 171//171 179//179
f 170//170 179//179 178//178
f 171//171 172//172 180//180
f 171//171 180//180 179//179
f 172//172 173//173 181//181
f 172//172 181//181 180//180
f 173//173 174//174 182//182
f 173//173 182//182 181//181
f 174//174 175//175 183//183
f 174//174 183//183 182//182
f 175//175 176//176 184//184
f 175//175 184//184 183//183
f 176//176 169//169 177//177
f 176//176 177//177 184//184
f 177//177 178//178 186//186
f 177//177 186//186 185//185
f 178//178 179//179 187//187
f 178//178 187//187 186//186
f 179//179 180//180 188//188
f 179//179 188//188 187//187
f 180//180 181//181 189//189
f 180//180 189//189 188//188
f 181//181 182//182 190//190
f 181//181 190//190 189//189
f 182//182 183//183 191//191
f 182//182 191//191 190//190
f 183//183 184//184 192//192
f 183//183 192//192 191//191
f 184//184 177//177 185//185
f 184//184 185//185 192//192
f 185//185 186//186 194//194
f 185//185 194//194 193//193
f 186//186 187//187 195//195
f 186//186 195//195 194//194
f 187//187 188//188 196//196
f 187//187 196//196 195//195
f 188//188 189//189 197//197
f 188//188 197//197 196//196
f 189//189 190//190 198//198
f 189//189 198//198 197//197
f 190//190 191//191 199//199
f 190//190 199//199 198//198
f 191//191 192//192 200//200
f 191//191 200//200 199//199
f 192//192 185//185 193//193
f 192//192 193//193 200//200
f 193//193 194//194 202//202
f 193//193 202//202 201//201
f 194//194 195//195 203//203
f 194//194 203//203 202//202
f 195//195 196//196 204//204
f 195//195 204//204 203//203
f 196//196 197//197 205//205
f 196//196 205//205 204//204
f 197//197 198//198 206//206
f 197//197 206//206 205//205
f 198//198 199//199 207//207
f 198//198 207//207 206//206
f 199//199 200//200 208//208
f 199//199 208//208 207//207
f 200//200 193//193 201//201
f 200//200 201//201 208//208
f 201//201 202//202 210//210
f 201//201 210//210 209//209
f 202//202 203//203 211//211
f 202//202 211//211 210//210
f 203//203 204//204 212//212
f 203//203 212//212 211//211
f 204//204 205//205 213//213
f 204//204 213//213 212//212
f 205//205 206//206 214//214
f 205//205 214//214 213//213
f 206//206 207//207 215//215
f 206//206 215//215 214//214
f 207//207 208//208 216//216
f 207//207 216//216 215//215
f 208//208 201//201 209//209
f 208//208 209//209 216//216
f 209//209 210//210 218//218
f 209//209 218//218 217//217
f 210//210 211//211 219//219
f 210//210 219//219 218//218
f 211//211 212//212 220//220
f 211//211 220//220 219//219
f 212//212 213//213 221//221
f 212//212 221//221 220//220
f 213//213 214//214 222//222
f 213//213 222//222 221//221
f 214//214 215//215 223//223
f 214//214 223//223 222//222
f 215//215 216//216 224//224
f 215//215 224//224 223//223
f 216//216 209//209 217//217
f 216//216 217//217 224//224
f 217//217 218//218 226//226
f 217//217 226//226 225//225
f 218//218 219//219 227//227
f 218//218 227//227 226//226
f 219//219 220//220 228//228
f 219//219 228//228 227//227
f 220//220 221//221 229//229
f 220//220 229//229 228//228
f 221//221 222//222 230//230
f 221//221 230//230 229//229
f 222//222 223//223 231//231
f 222//222 231//231 230//230
f 223//223 224//224 232//232
f 223//223 232//232 231//231
f 224//224 217//217 225//225
f 224//224 225//225 232//232
f 225//225 226//226 234//234
f 225//225 234//234 233//233
f 226//226 227//227 235//235
f 226//226 235//235 234//234
f 227//227 228//228 236//236
f 227//227 236//236 235//235
f 228//228 229//229 237//237
f 228//228 237//237 236//236
f 229//229 230//230 238//238
f 229//229 238//238 237//237
f 230//230 231//231 239//239
f 230//230 239//239 238//238
f 231//231 232//232 240//240
f 231//231 240//240 239//239
f 232//232 225//225 233//233
f 232//232 233//233 240//240
f 233//233 234//234 242//242
f 233//233 242//242 241//241
f 234//234 235//235 243//243
f 234//234 243//243 242//242
f 235//235 236//236 244//244
f 235//235 244//244 243//243
f 236//236 237//237 245//245
f 236//236 245//245 244//244
f 237//237 238//238 246//246
f 237//237 246//246 245//245
f 238//238 239//239 247//247
f 238//238 247//247 246//246
f 239//239 240//240 248//248
f 239//239 248//248 247//247
f 240//240 233//233 241//241
f 240//240 241//241 248//248
f 241//241 242//242 250//250
f 241//241 250//250 249//249
f 242//242 243//243 251//251
f 242//242 251//251 250//250
f 243//243 244//244 252//252
f 243//243 252//252 251//251
f 244//244 245//245 253//253
f 244//244 253//253 252//252
f 245//245 246//246 254//254
f 245//245 254//254 253//253
f 246//246 247//247 255//255
f 246//246 255//255 254//254
f 247//247 248//248 256//256
f 247//247 256//256 255//255
f 248//248 241//241 249//249
f 248//248 249//249 256//256
f 249//249 250//250 258//258
f 249//249 258//258 257//257
f 250//250 251//251 259//259
f 250//250 259//259 258//258
f 251//251 252//252 260//260
f 251//251 260//260 259//259
f 252//252 253//253 261//261
f 252//252 261//261 260//260
f 253//253 254//254 262//262
f 253//253 262//262 261//261
f 254//254 255//255 263//263
f 254//254 263//263 262//262
f 255//255 256//256 264//264
f 255//255 264//264 263//263
f 256//256 249//249 257//257
f 256//256 257//257 264//264
f 257//257 258//258 266//266
f 257//257 266//266 265//265
f 258//258 259//259 267//267
f 258//258 267//267 266//266
f 259//259 260//260 268//268
f 259//259 268//268 267//267
f 260//260 261//261 269//269
f 260//260 269//269 268//268
f 261//261 262//262 270//270
f 261//261 270//270 269//269
f 262//262 263//263 271//271
f 262//262 271//271 270//270
f 263//263 264//264 272//272
f 263//263 272//272 271//271
f 264//264 257//257 265//265
f 264//264 265//265 272//272
f 265//265 266//266 274//274
f 265//265 274//274 273//273
f 266//266 267//267 275//275
f 266//266 275//275 274//274
f 267//267 268//268 276//276
f 267//267 276//276 275//275
f 268//268 269//269 277//277
f 268//268 277//277 276//276
f 269//269 270//270 278//278
f 269//269 278//278 277//277
f 270//270 271//271 279//279
f 270//270 279//279 278//278
f 271//271 272//272 280//280
f 271//271 280//280 279//279
f 272//272 265//265 273//273
f 272//272 273//273 280//280
f 273//273 274//274 282//282
f 273//273 282//282 281//281
f 274//274 275//275 283//283
f 274//274 283//283 282//282
f 275//275 276//276 284//284
f 275//275 284//284 283//283
f 276//276 277//277 285//285
f 276//276 285//285 284//284
f 277//277 278//278 286//286
f 277//277 286//286 285//285
f 278//278 279//279 287//287
f 278//278 287//287 286//286
f 279//279 280//280 288//288
f 279//279 288//288 287//287
f 280//280 273//273 281//281
f 280//280 281//281 288//288
f 281//281 282//282 290//290
f 281//281 290//290 289//289
f 282//282 283//283 291//291
f 282//282 291//291 290//290
f 283//283 284//284 292//292
f 283//283 292//292 291//291
f 284//284 285//285 293//293
f 284//284 293//293 292//292
f 285//285 286//286 294//294
f 285//285 294//294 293//293
f 286//286 287//287 295//295
f 286//286 295//295 294//294
f 287//287 288//288 296//296
f 287//287 296//296 295//295
f 288//288 281//281 289//289
f 288//288 289//289 296//296
f 289//289 290//290 298//298
f 289//289 298//298 297//297
f 290//290 291//291 299//299
f 290//290 299//299 298//298
f 291//291 292//292 300//300
f 291//291 300//300 299//299
f 292//292 293//293 301//301
f 292//292 301//301 300//300
f 293//293 294//294 302//302
f 293//293 302//302 301//301
f 294//294 295//295 303//303
f 294//294 303//303 302//302
f 295//295 296//296 304//304
f 295//295 304//304 303//303
f 296//296 289//289 297//297
f 296//296 297//297 304//304
f 297//297 298//298 306//306
f 297//297 306//306 305//305
f 298//298 299//299 307//307
f 298//298 307//307 306//306
f 299//299 300//300 308//308
f 299//299 308//308 307//307
f 300//300 301//301 309//309
f 300//300 309//309 308//308
f 301//301 302//302 310//310
f 301//301 310//310 309//309
f 302//302 303//303 311//311
f 302//302 311//311 310//310
f 303//303 304//304 312//312
f 303//303 312//312 311//311
f 304//304 297//297 305//305
f 304//304 305//305 312//312
f 305//305 306//306 314//314
f 305//305 314//314 313//313
f 306//306 307//307 315//315
f 306//306 315//315 314//314
f 307//307 308//308 316//316
f 307//307 316//316 315//315
f 308//308 309//309 317//317
f 308//308 317//317 316//316
f 309//309 310//310 318//318
f 309//309 318//318 317//317
f 310//310 311//311 319//319
f 310//310 319//319 318//318
f 311//311 312//312 320//320
f 311//311 320//320 319//319
f 312//312 305//305 313//313
f 312//312 313//313 320//320
f 313//313 314//314 322//322
f 313//313 322//322 321//321
f 314//314 315//315 323//323
f 314//314 323//323 322//322
f 315//315 316//316 324//324
f 315//315 324//324 323//323
f 316//316 317//317 325//325
f 316//316 325//325 324//324
f 317//317 318//318 326//326
f 317//317 326//326 325//325
f 318//318 319//319 327//327
f 318//318 327//327 326//326
f 319//319 320//320 328//328
f 319//319 328//328 327//327
f 320//320 313//313 321//321
f 320//320 321//321 328//328
f 321//321 322//322 330//330
f 321//321 330//330 329//329
f 322//322 323//323 331//331
f 322//322 331//331 330//330
f 323//323 324//324 332//332
f 323//323 332//332 331//331
f 324//324 325//325 333//333
f 324//324 333//333 332//332
f 325//325 326//326 334//334
f 325//325 334//334 333//333
f 326//326 327//327 335//335
f 326//326 335//335 334//334
f 327//327 328//328 336//336
f 327//327 336//336 335//335
f 328//328 321//321 329//329
f 328//328 329//329 336//336
f 329//329 330//330 338//338
f 329//329 338//338 337//337
f 330//330 331//331 339//339
f 330//330 339//339 338//338
f 331//331 332//332 340//340
f 331//331 340//340 339//339
f 332//332 333//333 341//341
f 332//332 341//341 340//340
f 333//333 334//334 342//342
f 333//333 342//342 341//341
f 334//334 335//335 343//343
f 334//334 343//343 342//342
f 335//335 336//336 344//344
f 335//335 344//344 343//343
f 336//336 329//329 337//337
f 336//336 337//337 344//344
f 337//337 338//338 346//346
f 337//337 346//346 345//345
f 338//338 339//339 347//347
f 338//338 347//347 346//346
f 339//339 340//340 348//348
f 339//339 348//348 347//347
f 340//340 341//341 349//349
f 340//340 349//349 348//348
f 341//341 342//342 350//350
f 341//341 350//350 349//349
f 342//342 343//343 351//351
f 342//342 351//351 350//350
f 343//343 344//344 352//352
f 343//343 352//352 351//351
f 344//344 337//337 345//345
f 344//344 345//345 352//352
f 345//345 346//346 354//354
f 345//345 354//354 353//353
f 346//346 347//347 355//355
f 346//346 355//355 354//354
f 347//347 348//348 356//356
f 347//347 356//356 355//355
f 348//348 349//349 357//357
f 348//348 357//357 356//356
f 349//349 350//350 358//358
f 349//349 358//358 357//357
f 350//350 351//351 359//359
f 350//350 359//359 358//358
f 351//351 352//352 360//360
f 351//351 360//360 359//359
f 352//352 345//345 353//353
f 352//352 353//353 360//360
f 353//353 354//354 362//362
f 353//353 362//362 361//361
f 354//354 355//355 363//363
f 354//354 363//363 362//362
f 355//355 356//356 364//364
f 355//355 364//364 363//363
f 356//356 357//357 365//365
f 356//356 365//365 364//364
f 357//357 358//358 366//366
f 357//357 366//366 365//365
f 358//358 359//359 367//367
f 358//358 367//367 366//366
f 359//359 360//360 368//368
f 359//359 368//368 367//367
f 360//360 353//353 361//361
f 360//360 361//361 368//368
f 361//361 362//362 370//370
f 361//361 370//370 369//369
f 362//362 363//363 371//371
f 362//362 371//371 370//370
f 363//363 364//364 372//372
f 363//363 372//372 371//371
f 364//364 365//365 373//373
f 364//364 373//373 372//372
f 365//365 366//366 374//374
f 365//365 374//374 373//373
f 366//366 367//367 375//375
f 366//366 375//375 374//374
f 367//367 368//368 376//376
f 367//367 376//376 375//375
f 368//368 361//361 369//369
f 368//368 369//369 376//376
f 369//369 370//370 378//378
f 369//369 378//378 377//377
f 370//370 371//371 379//379
f 370//370 379//379 378//378
f 371//371 372//372 380//380
f 371//371 380//380 379//379
f 372//372 373//373 381//381
f 372//372 381//381 380//380
f 373//373 374//374 382//382
f 373//373 382//382 381//381
f 374//374 375//375 383//383
f 374//374 383//383 382//382
f 375//375 376//376 384//384
f 375//375 384//384 383//383
f 376//376 369//369 377//377
f 376//376 377//377 384//384
f 377//377 378//378 2//2
f 377//377 2//2 1//1
f 378//378 379//379 3//3
f 378//378 3//3 2//2
f 379//379 380//380 4//4
f 379//379 4//4 3//3
f 380//380 381//381 5//5
f 380//380 5//5 4//4
f 381//381 382//382 6//6
f 381//381 6//6 5//5
f 382//382 383//383 7//7
f 382//382 7//7 6//6
f 383//383 384//384 8//8
f 383//383 8//8 7//7
f 384//384 377//377 1//1
f 384//384 1//1 8//8
